<?xml version="1.0" encoding="UTF-8" standalone="no"?>
<svg
   xmlns:dc="http://purl.org/dc/elements/1.1/"
   xmlns:cc="http://creativecommons.org/ns#"
   xmlns:rdf="http://www.w3.org/1999/02/22-rdf-syntax-ns#"
   xmlns:svg="http://www.w3.org/2000/svg"
   xmlns="http://www.w3.org/2000/svg"
   xmlns:sodipodi="http://sodipodi.sourceforge.net/DTD/sodipodi-0.dtd"
   xmlns:inkscape="http://www.inkscape.org/namespaces/inkscape"
   inkscape:version="1.0 (4035a4fb49, 2020-05-01)"
   sodipodi:docname="Incognito Mode Earliest.svg"
   viewBox="0 0 2133.3333 1868"
   height="1868"
   width="2133.3333"
   id="svg833"
   version="1.1">
  <metadata
     id="metadata839">
    <rdf:RDF>
      <cc:Work
         rdf:about="">
        <dc:format>image/svg+xml</dc:format>
        <dc:type
           rdf:resource="http://purl.org/dc/dcmitype/StillImage" />
        <dc:title></dc:title>
      </cc:Work>
    </rdf:RDF>
  </metadata>
  <defs
     id="defs837" />
  <sodipodi:namedview
     inkscape:current-layer="g841"
     inkscape:window-maximized="1"
     inkscape:window-y="-9"
     inkscape:window-x="-9"
     inkscape:cy="691.39017"
     inkscape:cx="1244.0134"
     inkscape:zoom="0.21921842"
     showgrid="false"
     id="namedview835"
     inkscape:window-height="1001"
     inkscape:window-width="1920"
     inkscape:pageshadow="2"
     inkscape:pageopacity="0"
     guidetolerance="10"
     gridtolerance="10"
     objecttolerance="10"
     borderopacity="1"
     bordercolor="#666666"
     pagecolor="#ffffff" />
  <g
     id="g841"
     inkscape:label="Image"
     inkscape:groupmode="layer">
    <path
       sodipodi:nodetypes="ccscsscsssscssssssssscsscssssssssssscsssssscccssccscssssssscsscssssssssscssssssssssssssssscsscsssss"
       id="path845"
       d="m 137.838,1865.6667 c 27.62437,-86.0733 44.14693,-186.8057 76.22984,-273.6667 17.26532,-42.4053 48.87932,-86.5255 95.58914,-133.4032 l 12.69091,-12.7365 -115.50728,-180.6217 C 57.349063,1031.4748 7.8110343,953.87632 3.9710138,947.45516 l -3.11661564,-5.21152 31.90613284,0.89403 c 17.548375,0.49172 49.606134,1.19437 71.239469,1.56146 21.63333,0.36708 58.23333,1.24328 81.33333,1.94712 23.1,0.70383 59.79396,1.66367 81.54215,2.13298 l 39.54213,0.85328 5.12453,5.32213 c 12.84175,13.33695 47.19209,39.39347 69.41597,52.65566 8.70759,5.1963 12.37522,8.1389 12.37522,9.9291 0,4.6047 16.9979,69.3934 23.38334,89.1273 23.93548,73.9713 54.25784,127.5335 86.86979,153.449 17.51335,13.9172 32.55565,20.1962 54.49172,22.7461 26.44893,3.0745 53.21254,-2.2679 81.25514,-16.2196 42.45714,-21.1231 81.60512,-59.4291 121.85401,-119.233 6.44414,-9.5751 14.23556,-21.6817 17.31427,-26.9036 l 5.59767,-9.4945 5.61702,1.087 c 3.08936,0.5979 12.63096,1.4773 21.20356,1.9543 l 15.58654,0.8673 0.88941,7.5402 c 4.27461,36.2389 19.67373,77.3261 41.05471,109.5401 17.7386,26.7262 44.63402,54.9069 67.05158,70.2559 34.46007,23.5944 73.25221,37.5893 111.48831,40.2212 77.8805,5.3608 150.3379,-24.5536 198.1579,-81.8104 25.2505,-30.2335 49.2541,-76.3534 58.8297,-113.0343 1.4788,-5.6645 3.9027,-14.9491 5.3865,-20.6324 3.5419,-13.566 7.4704,-33.5879 8.6333,-44 0.8206,-7.3475 1.2701,-8.3345 3.7998,-8.3433 4.3896,-0.015 79.2756,-18.7906 111.5357,-27.9641 52.2671,-14.8626 111.4129,-35.6018 156,-54.70053 l 19.3333,-8.28138 53.3334,1.52095 c 29.3333,0.83652 76.1333,2.086 104,2.7766 27.8666,0.69061 82.1666,2.16987 120.6666,3.28723 38.5,1.11737 92.4638,2.64672 119.9194,3.39856 27.4557,0.75182 50.1189,1.5664 50.3626,1.81014 0.2438,0.24375 -31.2365,37.58003 -69.9561,82.96953 -38.7197,45.3895 -141.4132,165.9263 -228.2077,267.8596 -54.806,63.6767 -108.5244,128.2922 -163.4515,191.8647 89.4141,-61.1375 178.4297,-122.9156 267.3912,-184.7268 4.0652,-2.8259 8.0121,-5.1379 8.7709,-5.1379 2.8144,0 28.4614,22.4314 47.9107,41.9036 79.9809,80.0752 135.7363,176.3694 175.6889,303.4298 15.3809,57.5416 32.0003,114.7749 37.2728,173.3333 h -997.6071 c -949.4738,0 -997.57405,-0.112 -996.9227,-2.3333 z m 714.05088,-760.8212 c -0.30556,-0.2683 -10.15556,-0.891 -21.88889,-1.3838 -141.56385,-5.9459 -269.93249,-29.64 -366,-67.5558 -44.36732,-17.5108 -96.32845,-47.47079 -127.32998,-73.41649 -76.71631,-64.2051 -113.60367,-148.58256 -111.0122,-253.9332 0.53424,-21.71797 1.10644,-27.0549 4.11788,-38.40694 22.55015,-85.00615 123.83796,-157.44231 299.72574,-214.34944 l 26.16811,-8.4665 L 556.65755,382 c 0.5434,-35.93333 0.76776,-122.33333 0.49856,-192 L 556.66666,63.333333 559.63391,52.914731 C 571.64095,10.755772 600.67276,-2.2867669 674.16867,1.459994 732.18464,4.4176001 757.99977,8.5555055 856.66665,30.712573 958.66649,53.618108 1005.7468,61.252209 1084,67.574845 c 43.9486,3.550926 139.5108,3.251131 199.8991,-0.62712 49.4342,-3.174748 97.7054,-3.80107 118.4867,-1.537374 28.7394,3.130537 54.0822,10.107709 75.3788,20.75266 22.139,11.065924 40.8475,24.556219 44.8004,32.304419 12.8412,25.17094 19.4903,109.42562 18.548,235.03324 l -0.4464,59.50065 22,5.00105 c 54.4658,12.38118 114.4004,30.87735 154.8776,47.79607 107.1094,44.76975 164.577,100.68399 175.291,170.55305 2.5332,16.51922 1.821,46.55435 -1.509,63.64851 -19.8614,101.95503 -117.1274,196.33915 -278.0017,269.76483 -165.5811,75.57397 -379.9551,123.04997 -605.9297,134.19107 -25.74472,1.2693 -154.2364,2.0044 -155.50592,0.8896 z M 1098.0227,841.28319 c 104.6468,-6.79367 206.8271,-33.16443 305.5599,-78.85912 44.7404,-20.70636 101.8483,-54.55795 135.4752,-80.30511 2.1383,-1.63728 2.2755,-3.07941 1.2971,-13.64156 -0.8681,-9.37081 -1.4999,-11.71381 -3.0579,-11.34155 -1.08,0.25804 -17.2637,4.85194 -35.9637,10.20863 -129.1852,37.00564 -262.9407,63.07857 -377.3333,73.55353 -37.3734,3.42228 -124.93079,3.43207 -156.00002,0.0175 -93.27155,-10.25096 -186.77475,-31.9513 -295.99999,-68.69607 -34.59852,-11.63939 -85.79467,-30.61915 -106.51676,-39.48857 l -10.42771,-4.46324 -0.86109,14.07362 c -0.47361,7.74046 -0.86111,18.7838 -0.86111,24.54075 v 10.46717 l 15,11.15148 c 68.6101,51.00696 161.74244,95.636 256.00975,122.67994 53.64918,15.39117 116.60757,26.36789 172.32358,30.04441 24.07745,1.58879 77.30865,1.61935 101.35605,0.0581 z"
       style="fill:#010101;stroke-width:1.33333" />
  </g>
</svg>
